<?xml version="1.0" encoding="utf-8"?>
<!-- Generator: Adobe Illustrator 16.0.0, SVG Export Plug-In . SVG Version: 6.00 Build 0)  -->
<!DOCTYPE svg PUBLIC "-//W3C//DTD SVG 1.1//EN" "http://www.w3.org/Graphics/SVG/1.1/DTD/svg11.dtd">
<svg version="1.1" id="Capa_1" xmlns="http://www.w3.org/2000/svg" xmlns:xlink="http://www.w3.org/1999/xlink" x="0px" y="0px"
	 width="434.979px" height="176.991px" viewBox="0 0 434.979 176.991" enable-background="new 0 0 434.979 176.991"
	 xml:space="preserve">
<g>
	<path fill="#ffffff" d="M410.62,38.628c0,4.44-3.612,8.05-8.052,8.05c-4.44,0-8.049-3.61-8.049-8.05c0-4.438,3.608-8.05,8.049-8.05
		C407.008,30.579,410.62,34.19,410.62,38.628 M411.293,38.628c0-4.809-3.914-8.725-8.725-8.725s-8.725,3.916-8.725,8.725
		c0,4.811,3.914,8.725,8.725,8.725S411.293,43.439,411.293,38.628"/>
	<path fill="#ffffff" d="M404.729,36.303c0,0.212-0.057,0.402-0.174,0.584c-0.108,0.172-0.271,0.296-0.489,0.376
		c-0.259,0.095-0.64,0.144-1.134,0.144h-2.148V35.25h2.438c0.555,0,0.956,0.104,1.187,0.308
		C404.63,35.757,404.729,35.992,404.729,36.303 M406.062,38.203c0.482-0.517,0.731-1.156,0.731-1.899
		c0-0.573-0.147-1.104-0.435-1.574c-0.296-0.488-0.701-0.835-1.206-1.031c-0.47-0.18-1.117-0.271-1.979-0.271h-4.41v9.847h2.021
		v-4.007h0.969c0.361,0,0.518,0.023,0.568,0.032c0.135,0.034,0.275,0.095,0.416,0.184c0.095,0.063,0.262,0.202,0.502,0.511
		c0.221,0.281,0.502,0.688,0.839,1.208l1.313,2.073h2.469l-1.965-3.097c-0.313-0.488-0.656-0.906-1.014-1.243
		C405.368,38.764,405.762,38.52,406.062,38.203"/>
	<path fill="#ffffff" d="M40.797,36.979h11.833c1.972,0,3.258-1.61,3.258-3.538c0-1.929-1.287-3.536-3.258-3.536H22.792
		c-1.972,0-3.258,1.607-3.258,3.536c0,1.928,1.286,3.538,3.258,3.538h11.832v64.952c0,3.216,1.116,4.93,3.088,4.93
		c1.97,0,3.086-1.714,3.086-4.93V36.979z"/>
	<path fill="#ffffff" d="M90.818,51.985c0,9.002-4.63,13.719-12.688,13.719H67.411V36.979h10.718
		C86.444,36.979,90.818,42.016,90.818,51.985 M96.991,50.59c0-10.61-6.43-20.687-18.436-20.687h-13.46
		c-2.914,0-3.858,1.501-3.858,4.074v67.955c0,3.214,1.113,4.93,3.087,4.93c1.972,0,3.087-1.716,3.087-4.93V72.351l24.435,32.796
		c0.942,1.284,1.715,1.716,2.744,1.716c1.372,0,2.745-1.285,2.745-3.216c0-1.502-0.258-2.144-1.203-3.322L75.04,72.132h5.662
		C90.475,72.132,96.991,62.81,96.991,50.59"/>
	<path fill="#ffffff" d="M138.755,82.531h-25.552l12.69-43.194h0.171L138.755,82.531z M151.017,103.859
		c0-0.856-0.257-2.143-0.601-3.216l-19.635-65.808c-0.771-2.466-1.715-5.573-4.802-5.573c-3.087,0-4.032,3.107-4.801,5.573
		l-19.635,65.808c-0.344,1.073-0.601,2.359-0.601,3.216c0,1.608,0.944,3.004,2.744,3.004c2.143,0,2.658-1.608,3.43-3.536
		l4.028-13.723h29.669l4.03,13.723c0.599,1.928,1.286,3.536,3.428,3.536C150.073,106.863,151.017,105.467,151.017,103.859"/>
	<path fill="#ffffff" d="M171.124,94.107h-0.17l-16.806-61.629c-0.515-2.037-1.459-3.216-3.002-3.216
		c-1.885,0-3.088,1.5-3.088,3.643c0,0.857,0.344,2.466,1.203,5.359l18.091,63.881c0.6,2.145,1.543,4.718,3.686,4.718
		s3.088-2.573,3.69-4.718l18.09-63.881c0.858-2.893,1.199-4.502,1.199-5.359c0-2.143-1.199-3.643-3.086-3.643
		c-1.543,0-2.485,1.179-3,3.216L171.124,94.107z"/>
	<path fill="#ffffff" d="M206.407,71.705h17.062c1.975,0,3.258-1.605,3.258-3.536c0-1.929-1.283-3.536-3.258-3.536h-16.977V36.979
		h17.75c1.971,0,3.257-1.61,3.257-3.538c0-1.929-1.286-3.536-3.257-3.536h-20.235c-2.744,0-3.773,1.392-3.773,4.073v68.167
		c0,2.682,1.03,4.072,3.773,4.072h21.094c1.971,0,3.256-1.606,3.256-3.534c0-1.931-1.285-3.538-3.256-3.538h-18.693V71.705z"/>
	<path fill="#ffffff" d="M244.097,34.192c0-3.216-1.112-4.93-3.087-4.93c-1.97,0-3.085,1.714-3.085,4.93v68.167
		c0,2.145,1.371,3.86,3.085,3.86h19.208c1.974,0,3.26-1.608,3.26-3.536c0-1.931-1.286-3.54-3.26-3.54h-16.121V34.192z"/>
	<path fill="#ffffff" d="M301.961,49.966c0-2.105-2.062-5.117-3.498-5.117c-0.581,0-0.929,0.344-0.929,0.92
		c0,0.5,0.167,1.112,0.331,1.706c0.144,0.531,0.29,1.083,0.29,1.455c0,6.393-8.079,11.397-18.399,11.397
		c-10.746,0-17.423-4.345-17.423-11.344c0-7.019,10.943-17.773,24.427-17.773c1.467,0,3.494,0.132,5.282,0.252
		c1.465,0.097,2.734,0.184,3.494,0.184c0.778,0,1.631-0.062,2.457-0.122c0.681-0.05,1.321-0.095,1.8-0.095
		c2.064,0,2.796,0.757,2.796,2.895c0,1.169-1.143,2.895-3.593,2.895c-1.556,0-2.377-0.528-2.924-0.878
		c-0.322-0.207-0.579-0.374-0.89-0.374c-0.515,0-0.837,0.311-0.837,0.81c0,1.131,2.418,2.39,5.892,2.39
		c4.465,0,7.93-3.13,7.93-5.823c0-1.711-1.402-4.081-4.031-4.081c-0.541,0-1.312,0.06-2.287,0.135
		c-1.635,0.127-3.875,0.301-6.487,0.301c-2.193,0-4.405-0.159-6.18-0.288c-1.162-0.083-2.081-0.148-2.688-0.148
		c-8.905,0-17.962,3.159-23.639,8.245c-4.202,3.791-6.809,7.06-6.809,11.64c0,7.729,9.278,13.128,22.558,13.128
		C289.837,62.275,301.961,57.568,301.961,49.966"/>
	<path fill="#ffffff" d="M321.769,38.314l0.134-0.25c1.006-1.875,3.674-6.854,7.951-6.854c2.322,0,3.321,0.845,3.921,1.35
		c0.319,0.267,0.597,0.503,0.954,0.503c0.701,0,1.016-0.463,1.016-0.919c0-1.759-3.542-2.881-5.98-2.881
		c-5.93,0-9.762,4.676-12.555,8.088c-0.291,0.355-0.571,0.698-0.846,1.024c-2.004,2.414-4.507,6.353-6.933,10.165
		c-3.116,4.904-6.341,9.976-8.108,11.152c-0.77,0.471-1.306,0.636-2.054,0.636c-0.589,0-1.109-0.05-1.419-0.082
		c-0.168-0.017-0.29-0.027-0.354-0.027c-0.909,0-1.368,0.272-1.368,0.81c0,0.886,1.192,1.246,4.094,1.246h0.004
		c0.172,0.007,0.339,0.01,0.509,0.01c0.687,0,1.377-0.047,2.045-0.088c1.352-0.087,2.729-0.083,4.086-0.005
		c0.719,0.042,1.437,0.085,2.155,0.085c1.192,0,3.673,0,3.673-1.356c0-0.166-0.066-0.702-0.926-0.702
		c-0.188,0-0.396,0.025-0.616,0.055c-0.2,0.025-0.414,0.053-0.623,0.053c-1.468,0-1.468-0.239-1.468-0.716
		c0.003-0.757,2.89-5.307,5.438-9.321C316.995,46.357,319.823,41.902,321.769,38.314"/>
	<path fill="#ffffff" d="M346.752,48.399c0.049-0.089,0.16-0.202,0.259-0.303c0.197-0.202,0.421-0.431,0.421-0.745
		c0-0.284-0.153-0.757-1.19-0.757c-0.872,0-4.454,0.904-5.164,1.084c-4.542,1.158-4.542,1.33-4.542,1.742
		c0,0.483,0.375,0.809,0.928,0.809c0.396,0,1.213-0.125,2.02-0.25c-0.771,0.864-1.523,1.742-2.257,2.599
		c-0.646,0.753-1.278,1.494-1.911,2.205c-2.741,3.097-4.906,5.546-10.796,5.546c-1.918,0-2.974-0.855-2.974-2.407
		c0-1.265,3.308-4.614,5.498-6.829c2.403-2.436,3.015-3.112,3.015-3.635c0-0.47-0.506-0.864-1.104-0.864
		c-0.266,0-3.729,0.763-5.527,1.176c-5.593,1.293-5.593,1.452-5.593,1.921c0,0.815,0.495,0.92,0.926,0.92
		c0.593,0,1.855-0.264,2.97-0.497c0.021-0.003,0.042-0.008,0.063-0.013c-0.454,0.469-0.95,0.945-1.461,1.438
		c-2.144,2.06-4.362,4.189-4.362,6.6c0,2.551,2.837,4.134,7.4,4.134c2.676,0,4.521-0.274,6.657-1.041
		c-0.032,0.092-0.049,0.187-0.049,0.286c0,0.177,0.065,0.755,0.926,0.755c0.426,0,0.779-0.08,1.126-0.157
		c0.369-0.082,0.751-0.17,1.266-0.17c0.717,0,1.298,0.06,1.971,0.132c0.879,0.09,1.871,0.195,3.438,0.195
		c0.823,0,2.965-0.222,2.965-1.246c0-0.484-0.479-0.812-1.191-0.812c-0.242,0-0.484,0.028-0.725,0.06
		c-0.2,0.025-0.404,0.052-0.604,0.052c-1.358,0-1.469-0.241-1.469-0.553c0.039-0.776,3.421-4.662,5.444-6.984
		C344.761,50.913,346.178,49.288,346.752,48.399"/>
	<path fill="#ffffff" d="M363.902,47.995c2.367,0,5.19,0.484,5.19,2.788c0,4.192-8.976,9.546-16.007,9.546
		c-2.044,0-3.884-0.51-4.409-0.804c0.097-0.104,0.271-0.257,0.444-0.409c0.802-0.702,2.465-2.163,5.234-5.915
		C356.275,50.682,358.754,47.995,363.902,47.995 M387.346,32.852c0-1.878-3.824-3.588-8.02-3.588c-8.503,0-15.579,5.58-19.04,8.91
		c-3.909,3.802-5.508,5.954-9.542,11.618c-2.335,3.239-4.126,5.004-5.312,6.172c-1.009,0.996-1.517,1.493-1.517,2.121
		c0,2.12,5.808,4.191,10.146,4.191c6.091,0,8.446-0.426,12.612-2.282c1.958-0.896,8.349-4.165,8.349-8.613
		c0-3.665-4.982-5.334-9.613-5.334c-2.32,0-4.377,0.242-6.139,0.722c0.538-0.665,1.116-1.413,1.744-2.229
		c4.333-5.626,10.267-13.332,18.312-13.332c4.068,0,5.408,1.298,6.13,1.996c0.312,0.302,0.585,0.566,0.962,0.566
		C386.93,33.772,387.346,33.358,387.346,32.852"/>
</g>
</svg>
